<svg id="레이어_1" data-name="레이어 1" xmlns="http://www.w3.org/2000/svg" xmlns:xlink="http://www.w3.org/1999/xlink" viewBox="0 0 800 160"><defs><style>.cls-1{fill:#0068ff;}.cls-2{fill:#009eff;}.cls-3{font-size:97.3px;fill:#333;font-family:Broadway;letter-spacing:0em;}.cls-4{letter-spacing:-0.04em;}.cls-5{letter-spacing:-0.02em;}.cls-6{letter-spacing:-0.01em;}.cls-7{letter-spacing:-0.01em;}.cls-8{letter-spacing:-0.01em;}.cls-9{letter-spacing:0.02em;}.cls-10{opacity:0.2;}.cls-11{fill:url(#무제_그라디언트_22);}.cls-12{fill:url(#무제_그라디언트_22-2);}.cls-13{fill:url(#무제_그라디언트_22-3);}.cls-14{fill:url(#무제_그라디언트_22-4);}.cls-15{fill:url(#무제_그라디언트_22-5);}.cls-16{fill:url(#무제_그라디언트_22-6);}.cls-17{fill:url(#무제_그라디언트_22-7);}.cls-18{fill:url(#무제_그라디언트_22-8);}.cls-19{fill:url(#무제_그라디언트_22-9);}.cls-20{fill:url(#무제_그라디언트_22-10);}.cls-21{fill:url(#무제_그라디언트_22-11);}</style><linearGradient id="무제_그라디언트_22" x1="123.65" y1="184.26" x2="123.65" y2="114.08" gradientUnits="userSpaceOnUse"><stop offset="0" stop-color="#231815" stop-opacity="0"/><stop offset="0.51" stop-color="#241916" stop-opacity="0.04"/><stop offset="0.7" stop-color="#261d1a" stop-opacity="0.17"/><stop offset="0.83" stop-color="#292321" stop-opacity="0.4"/><stop offset="0.94" stop-color="#2f2c2b" stop-opacity="0.73"/><stop offset="1" stop-color="#333"/></linearGradient><linearGradient id="무제_그라디언트_22-2" x1="188.47" y1="169.91" x2="188.47" y2="115.7" xlink:href="#무제_그라디언트_22"/><linearGradient id="무제_그라디언트_22-3" x1="255.51" y1="172.24" x2="255.51" y2="113.42" xlink:href="#무제_그라디언트_22"/><linearGradient id="무제_그라디언트_22-4" x1="319.51" y1="169.91" x2="319.51" y2="115.7" xlink:href="#무제_그라디언트_22"/><linearGradient id="무제_그라디언트_22-5" x1="380.01" y1="185.49" x2="380.01" y2="115.84" xlink:href="#무제_그라디언트_22"/><linearGradient id="무제_그라디언트_22-6" x1="434.48" y1="168.63" x2="434.48" y2="116.75" xlink:href="#무제_그라디언트_22"/><linearGradient id="무제_그라디언트_22-7" x1="480.69" y1="169.62" x2="480.69" y2="116.75" xlink:href="#무제_그라디언트_22"/><linearGradient id="무제_그라디언트_22-8" x1="539.12" y1="169.91" x2="539.12" y2="114.56" xlink:href="#무제_그라디언트_22"/><linearGradient id="무제_그라디언트_22-9" x1="601.34" y1="169.91" x2="601.34" y2="115.7" xlink:href="#무제_그라디언트_22"/><linearGradient id="무제_그라디언트_22-10" x1="658.54" y1="169.62" x2="658.54" y2="116.75" xlink:href="#무제_그라디언트_22"/><linearGradient id="무제_그라디언트_22-11" x1="704.72" y1="185.35" x2="704.72" y2="115.6" xlink:href="#무제_그라디언트_22"/></defs><title>대지 1</title><path class="cls-1" d="M783.28,82.92c-28.61,0,0,34.46,0,34.46S811.89,82.92,783.28,82.92Zm0,21.8A9.67,9.67,0,1,1,793,95.05,9.66,9.66,0,0,1,783.28,104.72Z"/><path class="cls-1" d="M783.28,86.7a8.35,8.35,0,1,0,8.35,8.35A8.35,8.35,0,0,0,783.28,86.7Zm0,15.35a7,7,0,1,1,7-7A7,7,0,0,1,783.28,102.05Z"/><path class="cls-2" d="M786.53,124.1a3.25,3.25,0,1,1-3.25-3.24A3.24,3.24,0,0,1,786.53,124.1Z"/><path class="cls-2" d="M47.71,150h0a8.63,8.63,0,0,0,5.15-6.92l3.66-31.23a6.15,6.15,0,0,1,3.62-4.92l11-4.87a19.77,19.77,0,0,0,7.08-5.3l1.26-1.48a1.86,1.86,0,0,0-1.33-3.07l-1.94-.1a19.78,19.78,0,0,0-8.72,1.53l-11,4.66a6.18,6.18,0,0,1-6.07-.73L25.08,78.84a8.63,8.63,0,0,0-8.57-1h0C27.1,86.17,36.33,98.29,40,103.43a1.34,1.34,0,0,1-.57,2h0l-1.6-2.06a2.43,2.43,0,0,0-3.26-.54l-2.84,1.9a2,2,0,0,0-.82,1.07h0a2.15,2.15,0,0,1-.87,1.1l-1,.65,1.34-.32a2.06,2.06,0,0,1,1.25.09l.67.26,1.08.41L31,109a18.9,18.9,0,0,0-4.22,2.45l-6.53,5-6.35-6.63a4.23,4.23,0,0,0-5.21-.72l-2.56,1.52,9.21,9.58-1.82,1.39a.36.36,0,0,0,.28.64l2.26-.37.67,13.27,2.88-.84A4.24,4.24,0,0,0,22.67,130l-.42-9.21,8-1.32a19.49,19.49,0,0,0,4.67-1.4l2.33-1-.45,1.07-.26.67a2.06,2.06,0,0,1-.8,1l-1.14.76,1.18-.31a2,2,0,0,1,1.4.12h0a2.06,2.06,0,0,0,1.34.13l3.33-.77A2.43,2.43,0,0,0,43.71,117l-.4-2.58h0a1.34,1.34,0,0,1,1.86,1C46.39,121.56,48.9,136.58,47.71,150Z"/><path class="cls-2" d="M107.61,79.54a1.86,1.86,0,0,1-.9-3.48c1.81-1,3.63-2,5.46-3a1.85,1.85,0,1,1,1.75,3.27c-1.82,1-3.62,1.95-5.42,2.94A1.82,1.82,0,0,1,107.61,79.54Z"/><path class="cls-2" d="M758.63,109.57a1.83,1.83,0,0,1-1-.32c-3.41-2.35-6.91-4.7-10.4-7a1.85,1.85,0,1,1,2-3.1c3.52,2.3,7,4.67,10.47,7a1.85,1.85,0,0,1-1,3.38Zm-21-13.78a1.82,1.82,0,0,1-1-.28c-3.52-2.19-7.13-4.38-10.71-6.5a1.86,1.86,0,1,1,1.89-3.2c3.61,2.14,7.24,4.35,10.78,6.55a1.86,1.86,0,0,1-1,3.43ZM716,83a1.88,1.88,0,0,1-.91-.24c-3.62-2-7.31-4.06-11-6a1.86,1.86,0,0,1,1.75-3.28c3.7,2,7.42,4,11.06,6.07A1.85,1.85,0,0,1,716,83ZM693.78,71.13a1.82,1.82,0,0,1-.84-.2c-3.7-1.87-7.48-3.74-11.24-5.54A1.86,1.86,0,0,1,683.31,62c3.78,1.82,7.58,3.7,11.31,5.58a1.86,1.86,0,0,1-.84,3.51Zm-569.59-.34a1.86,1.86,0,0,1-.85-3.51c3.73-1.89,7.53-3.76,11.3-5.57a1.86,1.86,0,1,1,1.6,3.35c-3.74,1.8-7.52,3.66-11.22,5.53A1.78,1.78,0,0,1,124.19,70.79ZM671.11,60.25a1.76,1.76,0,0,1-.77-.17c-3.78-1.71-7.63-3.42-11.46-5.06a1.85,1.85,0,0,1,1.46-3.41c3.85,1.65,7.73,3.37,11.54,5.1a1.85,1.85,0,0,1-.77,3.54Zm-524.29-.31a1.86,1.86,0,0,1-.77-3.55c3.8-1.72,7.68-3.43,11.53-5.07A1.85,1.85,0,0,1,159,54.73c-3.83,1.64-7.68,3.33-11.46,5A1.69,1.69,0,0,1,146.82,59.94ZM648,50.33a1.94,1.94,0,0,1-.7-.14c-3.85-1.56-7.77-3.1-11.66-4.59A1.86,1.86,0,0,1,637,42.13c3.92,1.5,7.86,3,11.74,4.62a1.86,1.86,0,0,1-.7,3.58ZM169.9,50.06a1.85,1.85,0,0,1-.7-3.57c3.87-1.56,7.82-3.11,11.73-4.59a1.86,1.86,0,0,1,1.32,3.47c-3.89,1.47-7.81,3-11.66,4.56A1.87,1.87,0,0,1,169.9,50.06Zm454.62-8.7a1.88,1.88,0,0,1-.62-.11c-3.92-1.4-7.9-2.79-11.84-4.11a1.86,1.86,0,1,1,1.18-3.52c4,1.33,8,2.72,11.91,4.14a1.85,1.85,0,0,1-.63,3.6Zm-431.15-.2a1.86,1.86,0,0,1-.62-3.61c3.93-1.4,7.93-2.78,11.9-4.1A1.86,1.86,0,1,1,205.83,37c-4,1.32-7.93,2.69-11.84,4.08A1.88,1.88,0,0,1,193.37,41.16Zm407.32-7.81a1.76,1.76,0,0,1-.55-.09c-4-1.24-8-2.47-12-3.63a1.86,1.86,0,0,1,1-3.57c4,1.18,8.08,2.41,12.07,3.66a1.86,1.86,0,0,1-.56,3.63Zm-383.5-.13a1.86,1.86,0,0,1-.55-3.63c4-1.24,8-2.46,12.06-3.62a1.85,1.85,0,1,1,1,3.56c-4,1.16-8,2.37-12,3.6A1.76,1.76,0,0,1,217.19,33.22Zm359.38-6.93a2.05,2.05,0,0,1-.49-.06c-4-1.09-8.08-2.15-12.13-3.16a1.86,1.86,0,0,1,.9-3.6c4.07,1,8.17,2.09,12.2,3.18a1.85,1.85,0,0,1-.48,3.64Zm-335.26-.06a1.86,1.86,0,0,1-.48-3.65c4-1.08,8.13-2.13,12.19-3.14a1.85,1.85,0,1,1,.89,3.6c-4,1-8.12,2.05-12.12,3.13A2,2,0,0,1,241.31,26.23Zm24.37-6a1.85,1.85,0,0,1-.41-3.66c4.08-.93,8.22-1.82,12.31-2.67a1.86,1.86,0,0,1,.75,3.64c-4.07.84-8.18,1.73-12.24,2.65A1.9,1.9,0,0,1,265.68,20.2Zm286.5,0a2,2,0,0,1-.42-.05c-4-.93-8.16-1.83-12.24-2.68a1.85,1.85,0,0,1,.76-3.63c4.1.85,8.25,1.76,12.31,2.69a1.86,1.86,0,0,1-.41,3.67ZM290.27,15.12a1.86,1.86,0,0,1-.34-3.68c4.12-.76,8.3-1.5,12.41-2.18a1.85,1.85,0,1,1,.6,3.66c-4.08.68-8.23,1.41-12.33,2.17A1.87,1.87,0,0,1,290.27,15.12Zm237.31,0a1.39,1.39,0,0,1-.35,0c-4.07-.76-8.22-1.5-12.33-2.19a1.86,1.86,0,1,1,.61-3.66c4.14.69,8.31,1.44,12.41,2.21a1.86,1.86,0,0,1-.34,3.68ZM315,11a1.85,1.85,0,0,1-.26-3.69c4.14-.61,8.33-1.19,12.47-1.71a1.85,1.85,0,1,1,.47,3.68c-4.11.52-8.29,1.09-12.4,1.7Zm187.75-.1a1.23,1.23,0,0,1-.27,0c-4.11-.6-8.28-1.18-12.41-1.71a1.85,1.85,0,1,1,.47-3.68c4.15.53,8.35,1.11,12.48,1.72a1.85,1.85,0,0,1-.27,3.69ZM340,7.83a1.86,1.86,0,0,1-.2-3.7c4.15-.45,8.37-.87,12.53-1.23a1.85,1.85,0,1,1,.33,3.69c-4.14.37-8.33.78-12.46,1.23Zm137.91-.11h-.2c-4.13-.45-8.33-.86-12.47-1.22a1.86,1.86,0,1,1,.32-3.7c4.17.37,8.39.78,12.54,1.23a1.86,1.86,0,0,1-.19,3.7ZM365,5.61a1.85,1.85,0,0,1-.13-3.7c4.17-.29,8.4-.54,12.57-.75a1.85,1.85,0,1,1,.19,3.7c-4.15.21-8.36.46-12.5.75Zm87.86-.09h-.13l-4.07-.27c-2.81-.17-5.64-.32-8.44-.46a1.85,1.85,0,0,1,.18-3.7c2.81.13,5.67.29,8.48.46l4.1.26a1.86,1.86,0,0,1-.12,3.71ZM390.07,4.36A1.86,1.86,0,0,1,390,.65c4.17-.12,8.41-.21,12.59-.26a1.86,1.86,0,1,1,0,3.71c-4.16.05-8.37.14-12.52.26Zm37.67,0h-.05c-4.14-.12-8.35-.2-12.52-.23a1.86,1.86,0,0,1,0-3.71h0c4.19,0,8.43.11,12.59.23a1.86,1.86,0,0,1-.05,3.71Z"/><path class="cls-2" d="M773.78,120.41a1.88,1.88,0,0,1-1.1-.36c-1.65-1.23-3.31-2.44-5-3.65a1.85,1.85,0,1,1,2.17-3q2.52,1.81,5,3.67a1.85,1.85,0,0,1-1.11,3.34Z"/><text class="cls-3" transform="translate(87.75 109.75)">N<tspan class="cls-4" x="71.43" y="0">e</tspan><tspan class="cls-5" x="126.09" y="0">w</tspan><tspan class="cls-6" x="208.17" y="0">sAi</tspan><tspan class="cls-7" x="363.74" y="0">r</tspan><tspan class="cls-8" x="414.27" y="0">po</tspan><tspan class="cls-9" x="541.59" y="0">r</tspan><tspan class="cls-8" x="594.78" y="0">t</tspan></text><g class="cls-10"><path class="cls-11" d="M154.74,159.69,154.6,145l.12-15.44.16-15.49q-9.78,6.14-28.64,17T95.69,148l0-2.33.48-24.52.05-3.28c0-1.37-.64-2-1.9-2s-2,.84-2,2.52l0,3.33,0,5.36.19,24.38-.38,32.83q19.26-11.94,59.25-34.24V158l-.1,12.6,0,5.76,0,3.61c0,1.71.58,2.57,1.76,2.57a1.63,1.63,0,0,0,1.45-.6,4.42,4.42,0,0,0,.4-2.25V179c0-.66,0-1.76,0-3.27Z"/><path class="cls-12" d="M204.41,141.31l-14.25-.05-6.51-.09V126.44c0-2.85.18-4.66.52-5.42.67-1.46,2.24-2.18,4.71-2.18a22.11,22.11,0,0,1,10.9,3,29.45,29.45,0,0,1,9.34,8.34,14,14,0,0,0,1.85,2.23,1.88,1.88,0,0,0,1.24.48,1.7,1.7,0,0,0,1.33-.6,2.2,2.2,0,0,0,.52-1.49q0-2-3.18-5.37a32.05,32.05,0,0,0-10.39-7,30,30,0,0,0-12.09-2.71,26.71,26.71,0,0,0-24.8,16.63,26.59,26.59,0,0,0-2.14,10.26,27.53,27.53,0,0,0,1.91,9.91,26.29,26.29,0,0,0,5.22,8.57,27,27,0,0,0,20,8.84,26.45,26.45,0,0,0,15.91-5.18q11.11-8.08,11-23.42Zm-8.6,16.83c-.06,3-.12,4.75-.19,5.34a3.22,3.22,0,0,1-.66,1.63c-.89,1.24-2.69,1.85-5.42,1.85s-4.53-.71-5.22-2.13q-.67-1.28-.67-6.69V144.3l5.8-.19,6.36.19Z"/><path class="cls-13" d="M295.76,159.27l-6-13.16-5.51-11.88-4.51-9.93L275,113.42l-18,30.91q-1.8-3-4.79-8.5l-12.06-22.41-8.89,17.06-6.8,12.92-5.85,11.21-7.37,14h27L251.86,142q3.94,6.62,5.47,9.43t11,20.86l16.21-29.57q5.12,10.67,10.09,23.72a26.54,26.54,0,0,0,1.64,3.8,1.48,1.48,0,0,0,1.31.67,2.39,2.39,0,0,0,1.57-.55,1.59,1.59,0,0,0,.66-1.26,5.71,5.71,0,0,0-.5-1.9Q298.79,165.92,295.76,159.27Z"/><path class="cls-14" d="M333.36,119.45q-5.81-3.75-14.26-3.75a32.78,32.78,0,0,0-16.67,4.18,15.41,15.41,0,0,0-2.92,2.09,2.48,2.48,0,0,0-.79,1.76q0,1.76,1.86,1.8A4,4,0,0,0,303,124.1a19.48,19.48,0,0,1,6.74-3.85,23.82,23.82,0,0,1,8.18-1.6,4.68,4.68,0,0,1,2.63.59,2,2,0,0,1,.88,1.75,4.86,4.86,0,0,1-1.21,2.75c-.81,1.07-2.6,3.11-5.39,6.12q-10.21,10.92-13.23,15.37a15.28,15.28,0,0,0-3,8.53,12.5,12.5,0,0,0,2.07,6.81,17.54,17.54,0,0,0,5.77,5.54,26.14,26.14,0,0,0,14.06,3.8,35,35,0,0,0,12.35-2.47q5.09-2,5.09-4.23a1.72,1.72,0,0,0-.6-1.28,1.88,1.88,0,0,0-1.35-.57c-.6,0-1.73.58-3.37,1.76a18.5,18.5,0,0,1-11,3.6,6.12,6.12,0,0,1-3.16-.66,2.23,2.23,0,0,1-1.07-2q0-1.62,2-4.09a110.94,110.94,0,0,1,8-8.36q5.89-5.74,7.48-7.53a31.4,31.4,0,0,0,3.07-4.11,15.89,15.89,0,0,0,2.52-8.65Q340.44,124,333.36,119.45Z"/><path class="cls-15" d="M381.41,125.44H365.5l-14,0-2.37,0-3.13-5.8a20.71,20.71,0,0,0-1.92-3.25,1.72,1.72,0,0,0-1.37-.64c-1.08,0-1.62.48-1.62,1.43a6.34,6.34,0,0,0,.92,2.3c.62,1.13,2.79,4.82,6.49,11.1l28.76,48.41,3.71,6.41,38-68.74H386Zm-15.23,28.84-8.3-14-6.64-11.5,14.17-.19,14.22.19Z"/><polygon class="cls-16" points="422.39 166.82 422.44 168.63 446.72 168.63 446.72 167.25 446.62 159.84 446.53 148.34 446.38 130.85 446.57 121.02 446.67 116.75 422.25 116.75 422.49 134.23 422.63 149.67 422.53 157.79 422.39 166.82"/><path class="cls-17" d="M500.72,162.4a5.4,5.4,0,0,0-2.23.57,8.38,8.38,0,0,1-3.46,1,11,11,0,0,1-6.59-2.33,35.48,35.48,0,0,1-7.11-7.74l-.1-18.25.19-18.9H457l.06,2.61.06,9.69.17,17.44-.23,19.38-.06,2.76h24.38v-9.79a68.32,68.32,0,0,0,7.58,7.32q4.94,3.47,9.29,3.46a7.83,7.83,0,0,0,4.39-1.14,3.38,3.38,0,0,0,1.73-2.9,2.92,2.92,0,0,0-1-2.28A3.87,3.87,0,0,0,500.72,162.4Z"/><path class="cls-18" d="M549.81,121.78a23.34,23.34,0,0,0-9.17,1.93,35,35,0,0,0-9.07,5.77l0-1.76,0-6.22.09-5.18,0-1.76H507.53l.05,13.54.09,12.59L507.53,167v1.67h24.28l-.14-6.23a34.19,34.19,0,0,0,8.79,5.82,22.2,22.2,0,0,0,8.78,1.69,19.85,19.85,0,0,0,16-7.32q5.5-6.56,5.51-16.67,0-10.78-6.32-17.73A18.94,18.94,0,0,0,549.81,121.78Zm-4.75,36.54a44.5,44.5,0,0,1-.14,4.94c-.22,1.33-.89,2-2,2a10.23,10.23,0,0,1-5.18-1.92,30.94,30.94,0,0,1-6.08-5.2v-24.8a37.38,37.38,0,0,1,6.22-4.87,9.72,9.72,0,0,1,4.8-1.64,2,2,0,0,1,2.23,1.85q.09.62.14,6.41Z"/><path class="cls-19" d="M621.91,125.11a26.37,26.37,0,0,0-10.21-7.37,26.78,26.78,0,0,0-10.31-2A26.45,26.45,0,0,0,585.23,121a26,26,0,0,0-8.5,10.5A27.65,27.65,0,0,0,574.31,143a25.34,25.34,0,0,0,8.55,19.57,26.81,26.81,0,0,0,32.92,3.14A25.46,25.46,0,0,0,625.43,155a28,28,0,0,0,2.94-12.59,26,26,0,0,0-1.73-9.17A27.76,27.76,0,0,0,621.91,125.11ZM617,161.21A22.67,22.67,0,0,1,602.1,167q-.66,0-2.19-.09l-.14-47.94q1.47-.09,2-.09a23.77,23.77,0,0,1,12.64,3.7,23,23,0,0,1,8.7,9.61,23.89,23.89,0,0,1,2.28,10.46A23.18,23.18,0,0,1,617,161.21Z"/><path class="cls-20" d="M678.58,162.4a5.37,5.37,0,0,0-2.23.57,8.42,8.42,0,0,1-3.46,1,11,11,0,0,1-6.6-2.33,36,36,0,0,1-7.11-7.74l-.09-18.25.19-18.9H634.86l.06,2.61.05,9.69.17,17.44-.22,19.38-.06,2.76h24.37v-9.79a68.11,68.11,0,0,0,7.59,7.32q4.92,3.47,9.29,3.46a7.85,7.85,0,0,0,4.39-1.14,3.38,3.38,0,0,0,1.73-2.9,2.9,2.9,0,0,0-1.05-2.28A3.83,3.83,0,0,0,678.58,162.4Z"/><path class="cls-21" d="M725.29,125.18a19.4,19.4,0,0,0-3.89-4.68q-5.61-4.89-14.54-4.9-8.42,0-13,5.08a14.19,14.19,0,0,0-3.28,5.72,33.46,33.46,0,0,0-.9,8.76v3.56l.05,10v17l-1,.05c-.32,0-1,0-1.9-.1-.79-.06-1.46-.1-2-.1-1.55,0-2.32.6-2.32,1.79s.74,1.73,2.23,1.73c.69,0,1.19,0,1.47,0l3.47-.23v5.36a150.17,150.17,0,0,1,24.51,11.17L713.7,170l-.05-1.47q4.14,0,7.51.33c.38,0,.71,0,1,0,1.39,0,2.09-.64,2.09-1.93s-.73-1.77-2.19-1.77c-.44,0-1,0-1.66.09-2.5.19-4.29.28-5.37.28h-1.38l0-9.2.16-18.45.12-9.88a15.21,15.21,0,0,1,.53-4.84,1.85,1.85,0,0,1,1.81-1.38,5.44,5.44,0,0,1,3.68,2,14.37,14.37,0,0,1,3,4.9c.66,1.83,1.46,2.75,2.37,2.75q1.62,0,1.62-1.8A9.24,9.24,0,0,0,725.29,125.18Z"/></g></svg>